# xmcd
#
# Track frame offsets:
#	150
#	31650
#	64125
#	90780
#	123330
#	151800
#	170700
#	197400
#	203280
#	231900
#	256455
#	283455
#	307950
#	329100
#
# Disc length: 4731 seconds
#
# Revision: 1
# Processed by: cddbd v1.5.1PL0 Copyright (c) Steve Scherf et al.
# Submitted via: audiograbber 1.83.01
#
DISCID=ba12790e
DTITLE=Dj loopek - the summermix 2004
DYEAR=2004
DGENRE=Techno
TTITLE0=Push - electric eclipse
TTITLE1=electrique boutique - heal(vocal mix)
TTITLE2=ronski speed - iris
TTITLE3=the gift - the seventh day(mike rmx)
TTITLE4=jfk - metropolis
TTITLE5=no faces - free your feelings
TTITLE6=dj isaac - nobody listens to techno
TTITLE7=derb - derb
TTITLE8=pava&zany - here we go(extented version)
TTITLE9=dj coone - the name of my dj(orginal mix)
TTITLE10=walt vs. zero gi - exciter(showtek rmx)
TTITLE11=dj neil - go ahead(orange mix)
TTITLE12=asys - storm&thunder
TTITLE13=kai tracid - conscious(asys rmx)
EXTD=
EXTT0=
EXTT1=
EXTT2=
EXTT3=
EXTT4=
EXTT5=
EXTT6=
EXTT7=
EXTT8=
EXTT9=
EXTT10=
EXTT11=
EXTT12=
EXTT13=
PLAYORDER=
